# xmcd CD database file
#
# Track frame offsets:
#	150
#	13055
#	35135
#	71920
#	87377
#	103965
#	120487
#	140777
#	157432
#	181400
#	195267
#	208177
#	218305
#	236825
#	260059
#
# Disc length: 3660 seconds
#
# Revision: 0
# Processed by: cddbd v1.5.2PL0 Copyright (c) Steve Scherf et al.
# Submitted via: CDex 1.70beta2
#
DISCID=ec0e4a0f
DTITLE=Kaki King - Until We Felt Red
DYEAR=2006
DGENRE=Jazz
TTITLE0=Yellowcake
TTITLE1=Until We Felt Red
TTITLE2=You Don't Have to be Afraid
TTITLE3=Goby
TTITLE4=Jessica
TTITLE5=First Brain
TTITLE6=I Never Said I Love You
TTITLE7=Ahuvatl
TTITLE8=These are the Armies of the Tyrannized
TTITLE9=Second Brain
TTITLE10=Soft Shoulder
TTITLE11=The Footsteps Die Out Forever
TTITLE12=Gay Sons of Lesbian Mothers
TTITLE13=Brazilian
TTITLE14=Soft Shoulder (Alternate Version)
EXTD=YEAR: 2006
EXTT0=
EXTT1=
EXTT2=
EXTT3=
EXTT4=
EXTT5=
EXTT6=
EXTT7=
EXTT8=
EXTT9=
EXTT10=
EXTT11=
EXTT12=
EXTT13=
EXTT14=
PLAYORDER=
